HIERARCHY
ROOT Hips
{
  OFFSET 5.72205e-005 65.662 3.42586
  CHANNELS 6 Xposition Yposition Zposition Zrotation Xrotation Yrotation
  JOINT Chest
  {
    OFFSET 0 8.7983 -4.7612
    CHANNELS 6 Xposition Yposition Zposition Zrotation Xrotation Yrotation
    JOINT Chest2
    {
      OFFSET 0 8.0291 0.4195
      CHANNELS 6 Xposition Yposition Zposition Zrotation Xrotation Yrotation
      JOINT Chest3
      {
        OFFSET 0 9.9351 -2.2114
        CHANNELS 6 Xposition Yposition Zposition Zrotation Xrotation Yrotation
        JOINT Neck
        {
          OFFSET 0 22.3885 -0.4656
          CHANNELS 6 Xposition Yposition Zposition Zrotation Xrotation Yrotation
          JOINT Head
          {
            OFFSET -0.0001 12.643 3.4389
            CHANNELS 6 Xposition Yposition Zposition Zrotation Xrotation Yrotation
            End Site
            {
              OFFSET 0.0001 17.6655 0.5274
            }
          }
        }
        JOINT LeftCollar
        {
          OFFSET 2.2603 21.606 7.4023
          CHANNELS 6 Xposition Yposition Zposition Zrotation Xrotation Yrotation
          JOINT LeftShoulder
          {
            OFFSET 13.5163 -1.1332 -5.0146
            CHANNELS 6 Xposition Yposition Zposition Zrotation Xrotation Yrotation
            JOINT LeftElbow
            {
              OFFSET -0.0995 -28.05 -0.2431
              CHANNELS 6 Xposition Yposition Zposition Zrotation Xrotation Yrotation
              JOINT LeftWrist
              {
                OFFSET 0.0679 -23.3996 -0.1402
                CHANNELS 6 Xposition Yposition Zposition Zrotation Xrotation Yrotation
                JOINT LeftFinger1
                {
                  OFFSET 0.7932 -9.069 2.5189
                  CHANNELS 6 Xposition Yposition Zposition Zrotation Xrotation Yrotation
                  JOINT LeftFinger11
                  {
                    OFFSET -0.8272 -3.3923 0.5977
                    CHANNELS 6 Xposition Yposition Zposition Zrotation Xrotation Yrotation
                    JOINT LeftFinger12
                    {
                      OFFSET -0.5649 -2.3158 0.4082
                      CHANNELS 6 Xposition Yposition Zposition Zrotation Xrotation Yrotation
                      End Site
                      {
                        OFFSET -0.4919 -1.6479 0.2673
                      }
                    }
                  }
                }
                JOINT LeftFinger2
                {
                  OFFSET 0.9159 -9.2044 0.2193
                  CHANNELS 6 Xposition Yposition Zposition Zrotation Xrotation Yrotation
                  JOINT LeftFinger21
                  {
                    OFFSET 0.0117 -4.1944 -0.0248
                    CHANNELS 6 Xposition Yposition Zposition Zrotation Xrotation Yrotation
                    JOINT LeftFinger22
                    {
                      OFFSET 0.0071 -2.3249 -0.0142
                      CHANNELS 6 Xposition Yposition Zposition Zrotation Xrotation Yrotation
                      End Site
                      {
                        OFFSET -0.1475 -2.0882 0.0028
                      }
                    }
                  }
                }
                JOINT LeftFinger3
                {
                  OFFSET 0.6113 -8.7231 -2.0637
                  CHANNELS 6 Xposition Yposition Zposition Zrotation Xrotation Yrotation
                  JOINT LeftFinger31
                  {
                    OFFSET -0.1927 -3.8059 -0.2383
                    CHANNELS 6 Xposition Yposition Zposition Zrotation Xrotation Yrotation
                    JOINT LeftFinger32
                    {
                      OFFSET -0.1091 -2.1688 -0.1362
                      CHANNELS 6 Xposition Yposition Zposition Zrotation Xrotation Yrotation
                      End Site
                      {
                        OFFSET -0.2358 -1.9176 -0.0906
                      }
                    }
                  }
                }
                JOINT LeftFinger4
                {
                  OFFSET -0.6151 -8.0947 -3.5641
                  CHANNELS 6 Xposition Yposition Zposition Zrotation Xrotation Yrotation
                  JOINT LeftFinger41
                  {
                    OFFSET -0.4882 -2.341 -0.6462
                    CHANNELS 6 Xposition Yposition Zposition Zrotation Xrotation Yrotation
                    JOINT LeftFinger42
                    {
                      OFFSET -0.3575 -1.7167 -0.4742
                      CHANNELS 6 Xposition Yposition Zposition Zrotation Xrotation Yrotation
                      End Site
                      {
                        OFFSET -0.4187 -1.5237 -0.3496
                      }
                    }
                  }
                }
                JOINT LeftFinger0
                {
                  OFFSET -1.42 -1.8761 1.4223
                  CHANNELS 6 Xposition Yposition Zposition Zrotation Xrotation Yrotation
                  JOINT LeftFinger01
                  {
                    OFFSET -1.1471 -3.4929 2.6334
                    CHANNELS 6 Xposition Yposition Zposition Zrotation Xrotation Yrotation
                    JOINT LeftFinger02
                    {
                      OFFSET -0.823 -2.3 1.6571
                      CHANNELS 6 Xposition Yposition Zposition Zrotation Xrotation Yrotation
                      End Site
                      {
                        OFFSET -0.5822 -1.6914 1.1582
                      }
                    }
                  }
                }
              }
            }
          }
        }
        JOINT RightCollar
        {
          OFFSET -2.2603 21.606 7.4023
          CHANNELS 6 Xposition Yposition Zposition Zrotation Xrotation Yrotation
          JOINT RightShoulder
          {
            OFFSET -13.5187 -1.1334 -5.0155
            CHANNELS 6 Xposition Yposition Zposition Zrotation Xrotation Yrotation
            JOINT RightElbow
            {
              OFFSET 0.0994 -28.0499 -0.2431
              CHANNELS 6 Xposition Yposition Zposition Zrotation Xrotation Yrotation
              JOINT RightWrist
              {
                OFFSET -0.0679 -23.3996 -0.1402
                CHANNELS 6 Xposition Yposition Zposition Zrotation Xrotation Yrotation
                JOINT RightFinger1
                {
                  OFFSET -0.7932 -9.0691 2.5189
                  CHANNELS 6 Xposition Yposition Zposition Zrotation Xrotation Yrotation
                  JOINT RightFinger11
                  {
                    OFFSET 0.8272 -3.3923 0.5977
                    CHANNELS 6 Xposition Yposition Zposition Zrotation Xrotation Yrotation
                    JOINT RightFinger12
                    {
                      OFFSET 0.565 -2.3158 0.4082
                      CHANNELS 6 Xposition Yposition Zposition Zrotation Xrotation Yrotation
                      End Site
                      {
                        OFFSET 0.4919 -1.6479 0.2673
                      }
                    }
                  }
                }
                JOINT RightFinger2
                {
                  OFFSET -0.916 -9.2044 0.2193
                  CHANNELS 6 Xposition Yposition Zposition Zrotation Xrotation Yrotation
                  JOINT RightFinger21
                  {
                    OFFSET -0.0117 -4.1944 -0.0248
                    CHANNELS 6 Xposition Yposition Zposition Zrotation Xrotation Yrotation
                    JOINT RightFinger22
                    {
                      OFFSET -0.0071 -2.3249 -0.0142
                      CHANNELS 6 Xposition Yposition Zposition Zrotation Xrotation Yrotation
                      End Site
                      {
                        OFFSET 0.1475 -2.0882 0.0028
                      }
                    }
                  }
                }
                JOINT RightFinger3
                {
                  OFFSET -0.6113 -8.7231 -2.0637
                  CHANNELS 6 Xposition Yposition Zposition Zrotation Xrotation Yrotation
                  JOINT RightFinger31
                  {
                    OFFSET 0.1927 -3.8059 -0.2383
                    CHANNELS 6 Xposition Yposition Zposition Zrotation Xrotation Yrotation
                    JOINT RightFinger32
                    {
                      OFFSET 0.1091 -2.1688 -0.1362
                      CHANNELS 6 Xposition Yposition Zposition Zrotation Xrotation Yrotation
                      End Site
                      {
                        OFFSET 0.2358 -1.9176 -0.0906
                      }
                    }
                  }
                }
                JOINT RightFinger4
                {
                  OFFSET 0.6151 -8.0947 -3.564
                  CHANNELS 6 Xposition Yposition Zposition Zrotation Xrotation Yrotation
                  JOINT RightFinger41
                  {
                    OFFSET 0.4882 -2.341 -0.6462
                    CHANNELS 6 Xposition Yposition Zposition Zrotation Xrotation Yrotation
                    JOINT RightFinger42
                    {
                      OFFSET 0.3574 -1.7166 -0.4742
                      CHANNELS 6 Xposition Yposition Zposition Zrotation Xrotation Yrotation
                      End Site
                      {
                        OFFSET 0.4187 -1.5237 -0.3496
                      }
                    }
                  }
                }
                JOINT RightFinger0
                {
                  OFFSET 1.4199 -1.8761 1.4221
                  CHANNELS 6 Xposition Yposition Zposition Zrotation Xrotation Yrotation
                  JOINT RightFinger01
                  {
                    OFFSET 1.1472 -3.4929 2.6336
                    CHANNELS 6 Xposition Yposition Zposition Zrotation Xrotation Yrotation
                    JOINT RightFinger02
                    {
                      OFFSET 0.8229 -2.3 1.6571
                      CHANNELS 6 Xposition Yposition Zposition Zrotation Xrotation Yrotation
                      End Site
                      {
                        OFFSET 0.5822 -1.6914 1.1582
                      }
                    }
                  }
                }
              }
            }
          }
        }
      }
    }
  }
  JOINT RightHip
  {
    OFFSET -9.412 3.9771 -0.7758
    CHANNELS 6 Xposition Yposition Zposition Zrotation Xrotation Yrotation
    JOINT RightKnee
    {
      OFFSET -0.7531 -40.938 0
      CHANNELS 6 Xposition Yposition Zposition Zrotation Xrotation Yrotation
      JOINT RightAnkle
      {
        OFFSET 0 -40.1986 0
        CHANNELS 6 Xposition Yposition Zposition Zrotation Xrotation Yrotation
        JOINT RightToe
        {
          OFFSET 0 -4.4182 9.239
          CHANNELS 6 Xposition Yposition Zposition Zrotation Xrotation Yrotation
          End Site
          {
            OFFSET 0 0 6.1981
          }
        }
      }
    }
  }
  JOINT LeftHip
  {
    OFFSET 9.4119 3.9773 -0.7758
    CHANNELS 6 Xposition Yposition Zposition Zrotation Xrotation Yrotation
    JOINT LeftKnee
    {
      OFFSET 0.7532 -40.9383 0
      CHANNELS 6 Xposition Yposition Zposition Zrotation Xrotation Yrotation
      JOINT LeftAnkle
      {
        OFFSET 0 -40.1986 0
        CHANNELS 6 Xposition Yposition Zposition Zrotation Xrotation Yrotation
        JOINT LeftToe
        {
          OFFSET 0 -4.4182 9.239
          CHANNELS 6 Xposition Yposition Zposition Zrotation Xrotation Yrotation
          End Site
          {
            OFFSET 0 0 6.1981
          }
        }
      }
    }
  }
}
MOTION
Frames:	4
Frame Time:	0.0333333
5.72205e-005 65.662 3.42586 0 0 -0 0 8.7983 -4.7612 0 0 -0 0 8.0291 0.4195 0 0 -0 0 9.9351 -2.2114 0 0 -0 0 22.3885 -0.4656 0 0 -0 -0.0001 12.643 3.4389 0 0 -0 2.2603 21.606 7.4023 0 0 -12.5014 13.5163 -1.1332 -5.0146 88.1196 14.2451 10.6914 -0.0995 -28.05 -0.2431 -0.00160068 -0.00239207 0.000740045 0.0679 -23.3996 -0.1402 -8.4365e-005 7.00714e-005 -9.52055e-007 0.7932 -9.069 2.5189 9.93923e-017 -1.98785e-016 -1.59028e-015 -0.8272 -3.3923 0.5977 9.93923e-017 -5.96354e-016 -1.59028e-015 -0.5649 -2.3158 0.4082 -9.93923e-017 -5.96354e-016 -1.59028e-015 0.9159 -9.2044 0.2193 9.93923e-017 -1.98785e-016 -1.59028e-015 0.0117 -4.1944 -0.0248 -0.0128176 0.00232552 8.52707e-005 0.0071 -2.3249 -0.0142 9.93923e-017 5.96354e-016 -0 0.6113 -8.7231 -2.0637 9.93923e-017 -1.98785e-016 -1.59028e-015 -0.1927 -3.8059 -0.2383 -0.0160551 0.00299681 0.000857156 -0.1091 -2.1688 -0.1362 -2.48481e-016 0 3.18055e-015 -0.6151 -8.0947 -3.5641 9.93923e-017 -1.98785e-016 -1.59028e-015 -0.4882 -2.341 -0.6462 -0.0125865 0.0031206 0.00282719 -0.3575 -1.7167 -0.4742 0 1.98785e-016 -0 -1.42 -1.8761 1.4223 9.93923e-017 -1.98785e-016 -1.59028e-015 -1.1471 -3.4929 2.6334 9.93923e-017 -5.96354e-016 -1.59028e-015 -0.823 -2.3 1.6571 -9.93923e-017 -5.96354e-016 -1.59028e-015 -2.2603 21.606 7.4023 -0.865644 0.16582 7.03859 -13.5187 -1.1334 -5.0155 -88.0329 10.2057 -10.5567 0.0994 -28.0499 -0.2431 0.0015593 -0.00248883 -0.000788628 -0.0679 -23.3996 -0.1402 7.87605e-005 4.10553e-005 1.24965e-005 -0.7932 -9.0691 2.5189 -3.97569e-016 -7.95139e-016 3.18055e-015 0.8272 -3.3923 0.5977 -1.98785e-016 -3.97569e-016 3.18055e-015 0.565 -2.3158 0.4082 -1.98785e-016 0 3.18055e-015 -0.916 -9.2044 0.2193 -3.97569e-016 -7.95139e-016 3.18055e-015 -0.0117 -4.1944 -0.0248 0.0129473 0.00231697 -8.70038e-005 -0.0071 -2.3249 -0.0142 9.93923e-017 -7.95139e-016 1.59028e-015 -0.6113 -8.7231 -2.0637 -3.97569e-016 -7.95139e-016 3.18055e-015 0.1927 -3.8059 -0.2383 0.0163314 0.00303369 -0.000872333 0.1091 -2.1688 -0.1362 3.97569e-016 7.95139e-016 -3.18055e-015 0.6151 -8.0947 -3.564 -3.97569e-016 -7.95139e-016 3.18055e-015 0.4882 -2.341 -0.6462 0.0145763 0.00367772 -0.00326275 0.3574 -1.7166 -0.4742 9.93923e-017 -3.97569e-016 -0 1.4199 -1.8761 1.4221 -3.97569e-016 -7.95139e-016 3.18055e-015 1.1472 -3.4929 2.6336 -1.98785e-016 -3.97569e-016 3.18055e-015 0.8229 -2.3 1.6571 -1.98785e-016 0 3.18055e-015 -9.412 3.9771 -0.7758 3.42482 1.32465 -0.0626183 -0.7531 -40.938 0 0.000117508 0.717283 0.000978199 0 -40.1986 0 -3.4257 -2.04197 -0.0604716 8.88178e-016 -4.4182 9.239 6.47761e-025 0 -0 9.4119 3.9773 -0.7758 -3.42483 1.34017 0.0627307 0.7532 -40.9383 -2.22045e-016 -0.000193936 0.682302 -0.0013703 -8.88179e-016 -40.1986 0 3.42574 -2.02253 0.0595886 -8.88178e-016 -4.4182 9.239 -8.45714e-024 0 -7.40531e-025 
1.06205 52.7938 -0.755439 -6.24313 -26.8863 -17.8185 4.44089e-016 8.7983 -4.7612 0.544781 5.49163 0.791107 -4.44089e-016 8.0291 0.4195 1.02002 10.9901 1.54018 8.88179e-016 9.9351 -2.2114 1.02002 10.9901 1.54019 8.88179e-016 22.3885 -0.4656 -4.41204 24.9337 1.86299 -0.0001 12.643 3.4389 28.0892 -35.8662 12.3106 2.2603 21.606 7.4023 1.10428 -5.45915 -8.48278 13.5163 -1.1332 -5.0146 25.0692 -23.8016 -40.2242 -0.0995 -28.05 -0.2431 17.2842 -24.6649 -9.15896 0.0679 -23.3996 -0.1402 18.9988 -0.047497 -4.04257 0.7932 -9.069 2.5189 1.59028e-015 -3.18055e-015 1.23743e-014 -0.8272 -3.3923 0.5977 3.18055e-015 -3.18055e-015 1.2424e-014 -0.5649 -2.3158 0.4082 1.59028e-015 -3.18055e-015 1.24737e-014 0.9159 -9.2044 0.2193 1.59028e-015 -3.18055e-015 1.23743e-014 0.0117 -4.1944 -0.0248 -0.0127679 0.00230607 7.59147e-005 0.0071 -2.3249 -0.0142 -1.59028e-015 3.97569e-016 1.49089e-016 0.6113 -8.7231 -2.0637 1.59028e-015 -3.18055e-015 1.23743e-014 -0.1927 -3.8059 -0.2383 -0.0160333 0.00298704 0.000844436 -0.1091 -2.1688 -0.1362 -3.18055e-015 -1.98785e-015 1.26725e-014 -0.6151 -8.0947 -3.5641 1.59028e-015 -3.18055e-015 1.23743e-014 -0.4882 -2.341 -0.6462 -0.0126279 0.00312972 0.00282859 -0.3575 -1.7167 -0.4742 1.59028e-015 -1.19271e-015 -1.49089e-016 -1.42 -1.8761 1.4223 1.59028e-015 -3.18055e-015 1.23743e-014 -1.1471 -3.4929 2.6334 3.18055e-015 -3.18055e-015 1.2424e-014 -0.823 -2.3 1.6571 1.59028e-015 -3.18055e-015 1.24737e-014 -2.2603 21.606 7.4023 -13.8102 -1.02671 17.3031 -13.5187 -1.1334 -5.0155 -26.9791 -13.0014 -26.4967 0.0994 -28.0499 -0.2431 68.3783 -76.0909 64.8445 -0.0679 -23.3996 -0.1402 -10.1112 11.9793 -29.3798 -0.7932 -9.0691 2.5189 -1.59028e-015 0 -0 0.8272 -3.3923 0.5977 -4.77083e-015 0 3.97569e-016 0.565 -2.3158 0.4082 -3.18055e-015 0 3.97569e-016 -0.916 -9.2044 0.2193 -1.59028e-015 0 -0 -0.0117 -4.1944 -0.0248 0.0129552 0.00231383 -7.48355e-005 -0.0071 -2.3249 -0.0142 0 0 -0 -0.6113 -8.7231 -2.0637 -1.59028e-015 0 -0 0.1927 -3.8059 -0.2383 0.0163158 0.00302514 -0.000875814 0.1091 -2.1688 -0.1362 -1.59028e-015 -1.59028e-015 -0 0.6151 -8.0947 -3.564 -1.59028e-015 0 -0 0.4882 -2.341 -0.6462 0.0146281 0.00368675 -0.00327835 0.3574 -1.7166 -0.4742 -1.9228e-006 -1.10433e-005 -7.49792e-006 1.4199 -1.8761 1.4221 -1.59028e-015 0 -0 1.1472 -3.4929 2.6336 -4.77083e-015 0 3.97569e-016 0.8229 -2.3 1.6571 -3.18055e-015 0 3.97569e-016 -9.412 3.9771 -0.7758 3.56679 -48.4064 -10.134 -0.7531 -40.938 -7.10543e-015 3.07132 40.5622 -4.91301 -1.77636e-015 -40.1986 7.10543e-015 -20.3739 33.4759 2.63155 3.55271e-015 -4.4182 9.239 -1.18028e-016 1.36664e-016 1.27222e-014 9.4119 3.9773 -0.7758 19.1783 -40.7811 35.7996 0.7532 -40.9383 7.10543e-015 2.37204 44.0125 -0.510474 8.88178e-016 -40.1986 0 2.43935 28.704 -19.8799 0 -4.4182 9.239 1.98701e-008 -1.04727e-007 -8.35556e-007 
1.06205 52.7938 -0.755439 -6.24313 -26.8863 -17.8185 4.44089e-016 8.7983 -4.7612 0.544781 5.49163 0.791107 -4.44089e-016 8.0291 0.4195 1.02002 10.9901 1.54018 0 9.9351 -2.2114 1.02002 10.9901 1.54019 0 22.3885 -0.4656 -4.41204 24.9337 1.86299 -0.0001 12.643 3.4389 28.273 -35.8256 12.5994 2.2603 21.606 7.4023 1.10428 -5.45915 -8.48278 13.5163 -1.1332 -5.0146 25.0693 -23.8016 -40.2242 -0.0995 -28.05 -0.2431 17.0147 -24.9853 -9.21642 0.0679 -23.3996 -0.1402 19.0221 -0.0513615 -4.04004 0.7932 -9.069 2.5189 7.54216e-007 -1.08765e-005 -8.58457e-006 -0.8272 -3.3923 0.5977 1.11859e-006 1.73165e-006 -4.64273e-008 -0.5649 -2.3158 0.4082 1.59028e-015 -7.95139e-016 4.96962e-017 0.9159 -9.2044 0.2193 7.54216e-007 -1.08765e-005 -8.58457e-006 0.0117 -4.1944 -0.0248 -0.0128603 0.00233796 8.91315e-005 0.0071 -2.3249 -0.0142 -2.06902e-033 -1.19271e-015 -9.93923e-017 0.6113 -8.7231 -2.0637 7.54216e-007 -1.08765e-005 -8.58457e-006 -0.1927 -3.8059 -0.2383 -0.0160539 0.00299078 0.000861659 -0.1091 -2.1688 -0.1362 0 3.97569e-016 -0 -0.6151 -8.0947 -3.5641 7.54216e-007 -1.08765e-005 -8.58457e-006 -0.4882 -2.341 -0.6462 -0.0126665 0.00314052 0.00284438 -0.3575 -1.7167 -0.4742 1.59028e-015 3.97569e-016 9.93923e-017 -1.42 -1.8761 1.4223 7.54216e-007 -1.08765e-005 -8.58457e-006 -1.1471 -3.4929 2.6334 1.11859e-006 1.73165e-006 -4.64273e-008 -0.823 -2.3 1.6571 1.59028e-015 -7.95139e-016 4.96962e-017 -2.2603 21.606 7.4023 -13.8102 -1.02671 17.3031 -13.5187 -1.1334 -5.0155 -26.979 -13.0014 -26.4967 0.0994 -28.0499 -0.2431 68.3784 -76.0909 64.8446 -0.0679 -23.3996 -0.1402 -10.1112 11.9793 -29.3797 -0.7932 -9.0691 2.5189 0 0 -0 0.8272 -3.3923 0.5977 -3.18055e-015 0 -0 0.565 -2.3158 0.4082 0 0 -0 -0.916 -9.2044 0.2193 0 0 -0 -0.0117 -4.1944 -0.0248 0.0129673 0.00232814 -8.59567e-005 -0.0071 -2.3249 -0.0142 1.59028e-015 7.95139e-016 -0 -0.6113 -8.7231 -2.0637 0 0 -0 0.1927 -3.8059 -0.2383 0.0162898 0.00303592 -0.000861785 0.1091 -2.1688 -0.1362 -3.18055e-015 0 -3.97569e-016 0.6151 -8.0947 -3.564 0 0 -0 0.4882 -2.341 -0.6462 0.0146252 0.0036789 -0.0032736 0.3574 -1.7166 -0.4742 -3.18055e-015 2.38542e-015 7.95139e-016 1.4199 -1.8761 1.4221 0 0 -0 1.1472 -3.4929 2.6336 -3.18055e-015 0 -0 0.8229 -2.3 1.6571 0 0 -0 -9.412 3.9771 -0.7758 3.56679 -48.4064 -10.134 -0.7531 -40.938 -7.10543e-015 3.07132 40.5622 -4.91301 -1.77636e-015 -40.1986 7.10543e-015 -20.3739 33.4759 2.63155 3.55271e-015 -4.4182 9.239 -1.18028e-016 1.36664e-016 1.27222e-014 9.4119 3.9773 -0.7758 19.1783 -40.7811 35.7996 0.7532 -40.9383 7.10543e-015 2.37204 44.0125 -0.510474 8.88178e-016 -40.1986 0 2.43935 28.704 -19.8799 0 -4.4182 9.239 1.98701e-008 -1.04727e-007 -8.35556e-007 
1.06205 52.7938 -0.755447 -6.24314 -26.8863 -17.8185 1.33227e-015 8.7983 -4.7612 0.544784 5.49159 0.791116 0 8.0291 0.4195 1.02002 10.9901 1.54018 -8.88178e-016 9.9351 -2.2114 1.02002 10.9901 1.54019 8.88179e-016 22.3885 -0.4656 -4.41204 24.9337 1.86299 -0.0001 12.643 3.4389 28.4566 -35.7842 12.8879 2.2603 21.606 7.4023 1.10428 -5.45916 -8.48278 13.5163 -1.1332 -5.0146 25.0692 -23.8017 -40.2242 -0.0995 -28.05 -0.2431 16.744 -25.3056 -9.27572 0.0679 -23.3996 -0.1402 19.0453 -0.0552226 -4.03752 0.7932 -9.069 2.5189 -5.46501e-007 3.73184e-006 9.75514e-009 -0.8272 -3.3923 0.5977 -1.59028e-015 0 9.93923e-017 -0.5649 -2.3158 0.4082 -1.59028e-015 0 9.93923e-017 0.9159 -9.2044 0.2193 -5.46501e-007 3.73184e-006 9.75514e-009 0.0117 -4.1944 -0.0248 -0.0128615 0.00234598 8.18923e-005 0.0071 -2.3249 -0.0142 3.18055e-015 -1.19271e-015 -2.98177e-016 0.6113 -8.7231 -2.0637 -5.46501e-007 3.73184e-006 9.75514e-009 -0.1927 -3.8059 -0.2383 -0.016016 0.00298466 0.00085587 -0.1091 -2.1688 -0.1362 0 0 -0 -0.6151 -8.0947 -3.5641 -5.46501e-007 3.73184e-006 9.75514e-009 -0.4882 -2.341 -0.6462 -0.0125411 0.00311841 0.00282193 -0.3575 -1.7167 -0.4742 3.18055e-015 0 9.93923e-017 -1.42 -1.8761 1.4223 -5.46501e-007 3.73184e-006 9.75514e-009 -1.1471 -3.4929 2.6334 -1.59028e-015 0 9.93923e-017 -0.823 -2.3 1.6571 -1.59028e-015 0 9.93923e-017 -2.2603 21.606 7.4023 -13.8102 -1.02672 17.3031 -13.5187 -1.1334 -5.0155 -26.9791 -13.0014 -26.4967 0.0994 -28.0499 -0.2431 68.3784 -76.0909 64.8446 -0.0679 -23.3996 -0.1402 -10.1112 11.9793 -29.3797 -0.7932 -9.0691 2.5189 -5.50902e-006 1.20313e-006 -4.44142e-006 0.8272 -3.3923 0.5977 -0 -1.59028e-015 -0 0.565 -2.3158 0.4082 -0 -1.59028e-015 -0 -0.916 -9.2044 0.2193 -5.50902e-006 1.20313e-006 -4.44142e-006 -0.0117 -4.1944 -0.0248 0.0129463 0.00232069 -8.72799e-005 -0.0071 -2.3249 -0.0142 -3.18055e-015 1.59028e-015 -0 -0.6113 -8.7231 -2.0637 -5.50902e-006 1.20313e-006 -4.44142e-006 0.1927 -3.8059 -0.2383 0.0163288 0.00302255 -0.000876937 0.1091 -2.1688 -0.1362 1.59028e-015 0 7.95139e-016 0.6151 -8.0947 -3.564 -5.50902e-006 1.20313e-006 -4.44142e-006 0.4882 -2.341 -0.6462 0.0146346 0.00368585 -0.00327965 0.3574 -1.7166 -0.4742 1.59028e-015 2.38542e-015 3.97569e-016 1.4199 -1.8761 1.4221 -5.50902e-006 1.20313e-006 -4.44142e-006 1.1472 -3.4929 2.6336 -0 -1.59028e-015 -0 0.8229 -2.3 1.6571 -0 -1.59028e-015 -0 -9.412 3.9771 -0.7758 3.56679 -48.4063 -10.134 -0.7531 -40.938 7.10543e-015 3.07131 40.5621 -4.91301 1.77636e-015 -40.1986 -7.10543e-015 -20.3739 33.476 2.63157 -5.32907e-015 -4.4182 9.239 -6.02566e-016 1.2424e-017 9.54166e-015 9.4119 3.9773 -0.7758 19.1783 -40.7811 35.7996 0.7532 -40.9383 0 2.3721 44.0125 -0.51049 0 -40.1986 0 2.43934 28.7039 -19.8799 1.77636e-015 -4.4182 9.239 1.98704e-008 1.13128e-007 -8.35556e-007 
